# xmcd
#
# Track frame offsets:
#	150
#	21683
#	31299
#	50297
#	63604
#	84561
#	104565
#	117380
#	133932
#	148779
#	162336
#
# Disc length: 2318 seconds
#
# Revision: 1
# Processed by: cddbd v1.5.2PL0 Copyright (c) Steve Scherf et al.
# Submitted via: audiograbber 1.83.01
#
DISCID=a6090c0b
DTITLE=Arno und Andreas - Die Platte
DYEAR=1980
DGENRE=Gospel
TTITLE0=Die Platte
TTITLE1=Sonniger Montag
TTITLE2=Tage mit Sturm und Regen
TTITLE3=Frohes Fest
TTITLE4=Bin kein Genie
TTITLE5=Immer im Kreis
TTITLE6=Thunfisch
TTITLE7=Das ist wirklich nicht naiv
TTITLE8=Wenn ich rufe
TTITLE9=Ganz nah
TTITLE10=Das war's
EXTD=
EXTT0=
EXTT1=
EXTT2=
EXTT3=
EXTT4=
EXTT5=
EXTT6=
EXTT7=
EXTT8=
EXTT9=
EXTT10=
PLAYORDER=
